<svg width="24" height="24" viewBox="0 0 24 24" fill="none" xmlns="http://www.w3.org/2000/svg">
<path d="M21.957 6.73002C21.9666 6.71442 21.9699 6.69579 21.9664 6.67782C21.9629 6.65985 21.9528 6.64387 21.938 6.63302C21.934 6.62902 21.93 6.62502 21.926 6.62302L21.92 6.62102L15.887 3.60302C15.7954 3.56072 15.6959 3.5379 15.595 3.53602C15.4785 3.53528 15.3638 3.56395 15.2613 3.61936C15.1589 3.67477 15.0721 3.75514 15.009 3.85302L11.535 9.49902L15.894 16.582L21.957 6.73002ZM20.893 20.273C21.504 20.579 22 20.365 22 19.795V8.48302L16.191 17.922L20.893 20.273ZM9.622 8.21303V14.639L15.333 17.494L9.622 8.21303ZM2.554 17.771L7.744 20.366C7.85942 20.4272 7.98743 20.4607 8.118 20.464C8.441 20.464 8.667 20.214 8.667 19.795V6.70103C8.66702 6.68895 8.66379 6.67709 8.65762 6.66671C8.65146 6.65632 8.64261 6.64779 8.632 6.64202L2.739 3.69702C2.64657 3.64755 2.54381 3.62049 2.439 3.61802C2.181 3.61802 2 3.81702 2 4.15202V16.875C2 17.216 2.25 17.619 2.554 17.771Z" fill="white"/>
</svg>
